<svg xmlns="http://www.w3.org/2000/svg" xmlns:xlink="http://www.w3.org/1999/xlink" width="500" zoomAndPan="magnify" viewBox="0 0 375 374.999991" height="500" preserveAspectRatio="xMidYMid meet" version="1.0"><defs><g/><clipPath id="0e16be30fe"><path d="M 69 16.074219 L 306 16.074219 L 306 256 L 69 256 Z M 69 16.074219 " clip-rule="nonzero"/></clipPath><clipPath id="966e4c12ba"><path d="M 303 278 L 374.546875 278 L 374.546875 344.570312 L 303 344.570312 Z M 303 278 " clip-rule="nonzero"/></clipPath><clipPath id="cfe97c5844"><path d="M 0 278 L 72 278 L 72 344.570312 L 0 344.570312 Z M 0 278 " clip-rule="nonzero"/></clipPath></defs><path fill="#083e78" d="M 279.40625 156.945312 L 279.40625 67.773438 L 193.945312 44.535156 L 193.945312 156.945312 L 279.40625 156.945312 " fill-opacity="1" fill-rule="nonzero"/><g clip-path="url(#0e16be30fe)"><path fill="#083e78" d="M 187.402344 16.085938 L 69.664062 48.109375 L 69.664062 192.527344 C 69.664062 215.847656 76.445312 237.585938 88.140625 255.878906 C 92.332031 254.402344 96.558594 253.023438 100.8125 251.734375 C 88.925781 234.429688 82.527344 213.972656 82.527344 192.527344 L 82.527344 57.941406 L 187.402344 29.421875 L 292.273438 57.941406 L 292.273438 192.527344 C 292.273438 213.949219 285.890625 234.386719 274.027344 251.679688 C 278.28125 252.964844 282.507812 254.34375 286.699219 255.816406 C 298.375 237.539062 305.140625 215.824219 305.140625 192.527344 L 305.140625 48.109375 L 187.402344 16.085938 " fill-opacity="1" fill-rule="nonzero"/></g><path fill="#083e78" d="M 187.511719 292.328125 C 169.675781 292.328125 152.121094 294.222656 134.976562 297.980469 C 150.761719 305.84375 168.566406 310.265625 187.402344 310.265625 C 206.265625 310.265625 224.089844 305.828125 239.890625 297.945312 C 222.796875 294.210938 205.292969 292.328125 187.511719 292.328125 " fill-opacity="1" fill-rule="nonzero"/><path fill="#083e78" d="M 338.566406 192.457031 C 338.566406 192.457031 331.191406 195.027344 326.359375 200.488281 C 326.503906 197.847656 326.582031 195.191406 326.582031 192.527344 L 326.582031 189.992188 C 338.886719 185.867188 338.117188 167.882812 338.117188 167.882812 C 338.117188 167.882812 331.042969 170.894531 326.582031 176.582031 L 326.582031 166.367188 C 338.886719 162.242188 338.117188 144.261719 338.117188 144.261719 C 338.117188 144.261719 331.042969 147.273438 326.582031 152.957031 L 326.582031 142.746094 C 338.886719 138.617188 338.117188 120.636719 338.117188 120.636719 C 338.117188 120.636719 331.042969 123.648438 326.582031 129.335938 L 326.582031 119.121094 C 338.886719 114.996094 338.117188 97.011719 338.117188 97.011719 C 338.117188 97.011719 331.042969 100.027344 326.582031 105.710938 L 326.582031 95.496094 C 338.886719 91.371094 338.117188 73.390625 338.117188 73.390625 C 338.117188 73.390625 331.042969 76.402344 326.582031 82.085938 L 326.582031 71.875 C 338.886719 67.746094 338.117188 49.765625 338.117188 49.765625 C 338.117188 49.765625 331.042969 52.78125 326.582031 58.464844 L 326.582031 54.273438 C 338.167969 45.21875 324.4375 29.421875 324.4375 29.421875 C 324.4375 29.421875 310.707031 45.21875 322.292969 54.273438 L 322.292969 58.464844 C 317.835938 52.78125 310.761719 49.765625 310.761719 49.765625 C 310.761719 49.765625 309.988281 67.746094 322.292969 71.875 L 322.292969 82.089844 C 317.835938 76.402344 310.761719 73.390625 310.761719 73.390625 C 310.761719 73.390625 309.988281 91.371094 322.292969 95.496094 L 322.292969 105.710938 C 317.835938 100.027344 310.761719 97.011719 310.761719 97.011719 C 310.761719 97.011719 309.988281 114.996094 322.292969 119.121094 L 322.292969 129.335938 C 317.835938 123.648438 310.761719 120.636719 310.761719 120.636719 C 310.761719 120.636719 309.988281 138.617188 322.292969 142.746094 L 322.292969 152.957031 C 317.835938 147.273438 310.761719 144.261719 310.761719 144.261719 C 310.761719 144.261719 309.988281 162.242188 322.292969 166.367188 L 322.292969 176.582031 C 317.835938 170.894531 310.761719 167.882812 310.761719 167.882812 C 310.761719 167.882812 309.988281 185.867188 322.292969 189.992188 L 322.292969 192.527344 C 322.292969 195.003906 322.222656 197.46875 322.09375 199.921875 C 318.015625 194.039062 311.273438 190.609375 311.273438 190.609375 C 311.273438 190.609375 309.351562 207.933594 320.722656 213.199219 C 319.042969 224.125 316.027344 234.777344 311.6875 245.039062 C 309.183594 250.953125 306.285156 256.644531 303.003906 262.09375 C 304.332031 262.652344 305.660156 263.222656 306.980469 263.796875 C 310.242188 258.328125 313.132812 252.628906 315.636719 246.710938 C 320.113281 236.128906 323.226562 225.144531 324.957031 213.882812 C 338.109375 211.027344 338.566406 192.457031 338.566406 192.457031 " fill-opacity="1" fill-rule="nonzero"/><path fill="#083e78" d="M 54.003906 212.710938 C 63.894531 207.746094 64.269531 192.457031 64.269531 192.457031 C 64.269531 192.457031 57.515625 194.808594 52.703125 199.796875 C 52.574219 197.382812 52.507812 194.960938 52.507812 192.527344 L 52.507812 189.914062 C 64.582031 185.648438 63.820312 167.882812 63.820312 167.882812 C 63.820312 167.882812 56.976562 170.800781 52.507812 176.304688 L 52.507812 166.292969 C 64.582031 162.023438 63.820312 144.261719 63.820312 144.261719 C 63.820312 144.261719 56.976562 147.179688 52.507812 152.683594 L 52.507812 142.667969 C 64.582031 138.398438 63.820312 120.636719 63.820312 120.636719 C 63.820312 120.636719 56.976562 123.550781 52.507812 129.058594 L 52.507812 119.042969 C 64.582031 114.777344 63.820312 97.011719 63.820312 97.011719 C 63.820312 97.011719 56.976562 99.933594 52.507812 105.4375 L 52.507812 95.421875 C 64.582031 91.152344 63.820312 73.390625 63.820312 73.390625 C 63.820312 73.390625 56.976562 76.308594 52.507812 81.808594 L 52.507812 71.796875 C 64.582031 67.53125 63.820312 49.765625 63.820312 49.765625 C 63.820312 49.765625 56.976562 52.683594 52.507812 58.191406 L 52.507812 54.101562 C 63.699219 45.015625 50.140625 29.421875 50.140625 29.421875 C 50.140625 29.421875 36.234375 45.421875 48.21875 54.449219 L 48.21875 58.753906 C 43.777344 52.882812 36.46875 49.765625 36.46875 49.765625 C 36.46875 49.765625 35.683594 67.964844 48.21875 71.945312 L 48.21875 82.375 C 43.777344 76.503906 36.46875 73.390625 36.46875 73.390625 C 36.46875 73.390625 35.683594 91.585938 48.21875 95.570312 L 48.21875 106 C 43.777344 100.128906 36.46875 97.011719 36.46875 97.011719 C 36.46875 97.011719 35.683594 115.210938 48.21875 119.195312 L 48.21875 129.621094 C 43.777344 123.753906 36.46875 120.636719 36.46875 120.636719 C 36.46875 120.636719 35.683594 138.835938 48.21875 142.816406 L 48.21875 153.246094 C 43.777344 147.375 36.46875 144.261719 36.46875 144.261719 C 36.46875 144.261719 35.683594 162.460938 48.21875 166.441406 L 48.21875 176.867188 C 43.777344 171 36.46875 167.882812 36.46875 167.882812 C 36.46875 167.882812 35.683594 186.082031 48.21875 190.066406 L 48.21875 192.527344 C 48.21875 195.351562 48.304688 198.15625 48.46875 200.953125 C 44.515625 194.441406 36.980469 190.609375 36.980469 190.609375 C 36.980469 190.609375 34.847656 209.820312 48.351562 213.933594 C 48.375 214.023438 48.390625 214.113281 48.414062 214.203125 C 48.644531 214.1875 48.871094 214.164062 49.097656 214.140625 C 49.316406 214.195312 49.539062 214.25 49.765625 214.296875 C 49.800781 214.207031 49.828125 214.121094 49.859375 214.035156 L 49.867188 214.035156 C 51.605469 225.242188 54.710938 236.175781 59.167969 246.710938 C 61.679688 252.65625 64.585938 258.382812 67.867188 263.875 C 69.1875 263.292969 70.511719 262.730469 71.84375 262.167969 C 68.542969 256.695312 65.628906 250.980469 63.117188 245.039062 C 58.710938 234.625 55.664062 223.808594 54.003906 212.710938 " fill-opacity="1" fill-rule="nonzero"/><path fill="#083e78" d="M 239.914062 316.8125 C 223.273438 323.851562 205.605469 327.421875 187.402344 327.421875 C 169.199219 327.421875 151.53125 323.851562 134.890625 316.8125 C 126.753906 313.371094 119.039062 309.175781 111.796875 304.269531 C 110.105469 304.820312 108.421875 305.390625 106.742188 305.976562 C 114.972656 311.839844 123.824219 316.789062 133.21875 320.761719 C 150.390625 328.027344 168.621094 331.710938 187.402344 331.710938 C 206.179688 331.710938 224.410156 328.027344 241.582031 320.761719 C 251.003906 316.777344 259.878906 311.8125 268.132812 305.925781 C 266.453125 305.339844 264.765625 304.769531 263.078125 304.21875 C 255.8125 309.148438 248.074219 313.359375 239.914062 316.8125 " fill-opacity="1" fill-rule="nonzero"/><path fill="#083e78" d="M 289.8125 306.820312 C 224.75 277.964844 150.273438 277.964844 85.207031 306.820312 C 79.855469 294.917969 74.503906 283.015625 69.152344 271.113281 C 144.347656 237.699219 230.675781 237.699219 305.871094 271.113281 C 300.519531 283.015625 295.167969 294.917969 289.8125 306.820312 " fill-opacity="1" fill-rule="nonzero"/><g clip-path="url(#966e4c12ba)"><path fill="#083e78" d="M 349.515625 344.683594 C 335.15625 332.546875 319.667969 322.050781 303.054688 313.253906 C 309.097656 301.6875 315.144531 290.117188 321.1875 278.554688 C 340.410156 288.710938 358.347656 300.867188 374.941406 314.914062 C 362.671875 312.824219 350.34375 311.597656 337.902344 311.289062 C 342.488281 322.179688 346.367188 333.292969 349.515625 344.683594 " fill-opacity="1" fill-rule="nonzero"/></g><g clip-path="url(#cfe97c5844)"><path fill="#083e78" d="M 25.507812 344.683594 C 39.867188 332.546875 55.355469 322.050781 71.96875 313.253906 C 65.925781 301.6875 59.878906 290.117188 53.835938 278.554688 C 34.613281 288.710938 16.679688 300.867188 0.0859375 314.914062 C 12.351562 312.824219 24.679688 311.597656 37.121094 311.289062 C 32.535156 322.179688 28.65625 333.292969 25.507812 344.683594 " fill-opacity="1" fill-rule="nonzero"/></g><path fill="#ffffff" d="M 254.691406 126.824219 C 252.4375 125.441406 250.054688 124.34375 247.59375 123.53125 C 249.203125 119.695312 250.085938 115.621094 250.246094 111.523438 L 261.1875 111.523438 C 260.863281 117.417969 258.457031 122.757812 254.691406 126.824219 Z M 218.660156 93.460938 C 220.917969 94.84375 223.296875 95.9375 225.757812 96.753906 C 224.148438 100.589844 223.265625 104.664062 223.105469 108.761719 L 212.160156 108.761719 C 212.492188 102.867188 214.894531 97.527344 218.660156 93.460938 Z M 238.054688 108.761719 L 238.054688 98.480469 C 240.363281 98.386719 242.664062 98.066406 244.921875 97.519531 C 246.464844 101.101562 247.320312 104.921875 247.484375 108.761719 Z M 238.054688 121.804688 L 238.054688 111.523438 L 247.484375 111.523438 C 247.320312 115.363281 246.464844 119.179688 244.921875 122.765625 C 242.664062 122.21875 240.363281 121.898438 238.054688 121.804688 Z M 246.417969 126.050781 C 248.5625 126.738281 250.644531 127.65625 252.625 128.804688 C 249.203125 131.734375 244.960938 133.742188 240.289062 134.429688 C 242.808594 131.902344 244.851562 129.070312 246.417969 126.050781 Z M 238.054688 132.757812 L 238.054688 124.566406 C 239.945312 124.648438 241.832031 124.898438 243.6875 125.3125 C 242.226562 128 240.347656 130.515625 238.054688 132.757812 Z M 226.933594 126.050781 C 228.503906 129.070312 230.542969 131.902344 233.0625 134.429688 C 228.394531 133.742188 224.148438 131.734375 220.726562 128.804688 C 222.707031 127.65625 224.789062 126.738281 226.933594 126.050781 Z M 235.296875 132.757812 C 233 130.515625 231.125 128 229.664062 125.3125 C 231.519531 124.898438 233.40625 124.648438 235.296875 124.566406 Z M 235.296875 111.523438 L 235.296875 121.804688 C 232.988281 121.894531 230.6875 122.214844 228.429688 122.765625 C 226.886719 119.179688 226.03125 115.363281 225.867188 111.523438 Z M 235.296875 98.480469 L 235.296875 108.761719 L 225.867188 108.761719 C 226.03125 104.921875 226.886719 101.101562 228.429688 97.519531 C 230.6875 98.066406 232.988281 98.386719 235.296875 98.480469 Z M 226.933594 94.234375 C 224.789062 93.546875 222.707031 92.628906 220.726562 91.476562 C 224.148438 88.550781 228.394531 86.546875 233.0625 85.855469 C 230.542969 88.378906 228.503906 91.210938 226.933594 94.234375 Z M 235.296875 87.523438 L 235.296875 95.71875 C 233.40625 95.636719 231.519531 95.390625 229.664062 94.972656 C 231.125 92.285156 233 89.769531 235.296875 87.523438 Z M 240.292969 85.855469 C 244.960938 86.546875 249.203125 88.550781 252.625 91.480469 C 250.644531 92.628906 248.5625 93.546875 246.417969 94.234375 C 244.851562 91.214844 242.808594 88.378906 240.292969 85.855469 Z M 238.054688 87.523438 C 240.347656 89.769531 242.226562 92.285156 243.6875 94.972656 C 241.832031 95.390625 239.945312 95.636719 238.054688 95.71875 Z M 223.105469 111.523438 C 223.265625 115.621094 224.148438 119.695312 225.757812 123.53125 C 223.296875 124.34375 220.917969 125.441406 218.660156 126.824219 C 214.894531 122.757812 212.492188 117.417969 212.160156 111.523438 Z M 261.1875 108.761719 L 250.246094 108.761719 C 250.085938 104.664062 249.203125 100.589844 247.59375 96.753906 C 250.054688 95.9375 252.4375 94.84375 254.691406 93.460938 C 258.457031 97.527344 260.863281 102.867188 261.1875 108.761719 Z M 236.675781 83.03125 C 221.703125 83.03125 209.5625 95.167969 209.5625 110.140625 C 209.5625 125.117188 221.703125 137.253906 236.675781 137.253906 C 251.648438 137.253906 263.789062 125.117188 263.789062 110.140625 C 263.789062 95.167969 251.648438 83.03125 236.675781 83.03125 " fill-opacity="1" fill-rule="nonzero"/><path fill="#083e78" d="M 95.394531 169.8125 L 95.394531 192.527344 C 95.394531 212.847656 101.941406 232.15625 114.027344 248.058594 C 117.9375 247.066406 121.871094 246.15625 125.816406 245.324219 C 143.957031 241.507812 162.515625 239.382812 181.078125 238.980469 L 181.078125 169.8125 L 95.394531 169.8125 " fill-opacity="1" fill-rule="nonzero"/><path fill="#3a95b5" d="M 193.945312 169.8125 L 193.945312 238.980469 C 212.511719 239.382812 231.070312 241.507812 249.203125 245.324219 C 253.089844 246.140625 256.957031 247.039062 260.808594 248.011719 C 272.875 232.117188 279.40625 212.828125 279.40625 192.527344 L 279.40625 169.8125 L 193.945312 169.8125 " fill-opacity="1" fill-rule="nonzero"/><path fill="#3a95b5" d="M 181.078125 156.945312 L 181.078125 44.472656 L 95.394531 67.773438 L 95.394531 156.945312 L 181.078125 156.945312 " fill-opacity="1" fill-rule="nonzero"/><path fill="#ffffff" d="M 107.710938 93.0625 L 107.710938 127.757812 L 109.207031 127.59375 C 110.355469 127.472656 111.527344 127.410156 112.6875 127.410156 C 120.246094 127.410156 126.679688 130.082031 130.746094 132.320312 C 135.15625 134.75 137.765625 137.175781 137.792969 137.199219 L 137.851562 137.253906 C 134.128906 135.238281 119.023438 127.839844 103.917969 131.714844 L 103.917969 93.257812 C 105.179688 93.121094 106.445312 93.0625 107.710938 93.0625 " fill-opacity="1" fill-rule="nonzero"/><path fill="#ffffff" d="M 135.21875 130.707031 C 130.332031 127.574219 122.371094 123.738281 112.6875 123.738281 C 112.253906 123.738281 111.816406 123.746094 111.378906 123.761719 L 111.378906 91.023438 C 111.816406 91.003906 112.253906 90.996094 112.6875 90.996094 C 117.625 90.996094 122.617188 92.144531 127.53125 94.402344 C 130.941406 95.964844 133.59375 97.753906 135.21875 98.96875 Z M 109.0625 88.875 L 109.0625 126.25 C 123.046875 124.742188 134.027344 132.394531 137.535156 135.207031 L 137.535156 97.832031 C 134.027344 95.023438 123.046875 87.367188 109.0625 88.875 " fill-opacity="1" fill-rule="nonzero"/><path fill="#ffffff" d="M 168.707031 93.0625 L 168.707031 127.757812 L 167.207031 127.59375 C 166.058594 127.472656 164.886719 127.410156 163.730469 127.410156 C 156.171875 127.410156 149.734375 130.082031 145.671875 132.320312 C 141.261719 134.75 138.652344 137.175781 138.625 137.199219 L 138.566406 137.253906 C 142.285156 135.238281 157.390625 127.839844 172.5 131.714844 L 172.5 93.257812 C 171.234375 93.121094 169.96875 93.0625 168.707031 93.0625 " fill-opacity="1" fill-rule="nonzero"/><path fill="#ffffff" d="M 165.035156 123.761719 C 164.601562 123.746094 164.164062 123.738281 163.730469 123.738281 C 154.046875 123.738281 146.085938 127.574219 141.199219 130.707031 L 141.199219 98.96875 C 142.820312 97.753906 145.476562 95.964844 148.882812 94.402344 C 153.800781 92.144531 158.792969 90.996094 163.730469 90.996094 C 164.164062 90.996094 164.601562 91.003906 165.035156 91.023438 Z M 138.882812 97.832031 L 138.882812 135.207031 C 142.390625 132.394531 153.371094 124.742188 167.355469 126.25 L 167.355469 88.875 C 153.371094 87.367188 142.390625 95.023438 138.882812 97.832031 " fill-opacity="1" fill-rule="nonzero"/><path fill="#ffffff" d="M 217.058594 223.71875 L 216.382812 231.847656 L 224 228.925781 C 222.1875 226.613281 219.789062 224.8125 217.058594 223.71875 Z M 231.023438 221.085938 C 229.097656 222.007812 226.738281 221.855469 224.914062 220.484375 C 223.085938 219.113281 222.28125 216.890625 222.628906 214.78125 C 221.128906 215.503906 219.363281 215.570312 217.796875 214.914062 L 217.175781 222.332031 C 220.40625 223.546875 223.230469 225.664062 225.296875 228.429688 L 232.25 225.765625 C 231.179688 224.441406 230.75 222.726562 231.023438 221.085938 Z M 258.546875 185.535156 L 252.351562 193.785156 L 254.949219 195.734375 L 259.058594 190.261719 C 260.167969 188.789062 259.925781 186.722656 258.546875 185.535156 Z M 233.195312 219.304688 C 231.957031 220.953125 232 223.175781 233.160156 224.761719 L 253.597656 197.539062 L 251 195.585938 Z M 251.289062 192.984375 L 257.492188 184.722656 L 250.160156 179.222656 L 243.957031 187.480469 Z M 224.800781 213.003906 C 223.285156 215.023438 223.691406 217.902344 225.714844 219.417969 C 227.734375 220.933594 230.613281 220.527344 232.128906 218.503906 L 249.933594 194.789062 L 242.605469 189.285156 Z M 249.085938 178.429688 C 247.5625 177.441406 245.511719 177.785156 244.402344 179.261719 L 240.296875 184.730469 L 242.894531 186.683594 Z M 223.734375 212.203125 L 241.539062 188.484375 L 238.941406 186.535156 L 218.503906 213.757812 C 220.351562 214.429688 222.496094 213.851562 223.734375 212.203125 " fill-opacity="1" fill-rule="nonzero"/><path fill="#ffffff" d="M 130.710938 191.46875 C 128.71875 191.46875 127.105469 193.082031 127.105469 195.074219 C 127.105469 197.0625 128.71875 198.679688 130.710938 198.679688 L 134.316406 198.679688 L 134.316406 195.074219 C 134.316406 193.082031 132.703125 191.46875 130.710938 191.46875 " fill-opacity="1" fill-rule="nonzero"/><path fill="#ffffff" d="M 138.234375 216.234375 C 139.910156 216.234375 141.273438 214.871094 141.273438 213.199219 L 141.273438 199.5625 L 135.199219 199.5625 L 135.199219 213.199219 C 135.199219 214.871094 136.5625 216.234375 138.234375 216.234375 " fill-opacity="1" fill-rule="nonzero"/><path fill="#ffffff" d="M 149.367188 195.074219 C 149.367188 193.082031 147.753906 191.46875 145.761719 191.46875 C 143.769531 191.46875 142.15625 193.082031 142.15625 195.074219 L 142.15625 198.679688 L 145.761719 198.679688 C 147.753906 198.679688 149.367188 197.0625 149.367188 195.074219 " fill-opacity="1" fill-rule="nonzero"/><path fill="#ffffff" d="M 151.109375 183.5625 C 147.671875 180.167969 143.097656 178.300781 138.238281 178.300781 L 138.195312 178.300781 C 133.316406 178.308594 128.730469 180.21875 125.28125 183.675781 C 121.832031 187.128906 119.933594 191.722656 119.933594 196.605469 C 119.933594 201.75 122.121094 206.691406 125.933594 210.15625 C 128.046875 212.078125 129.84375 214.332031 131.277344 216.847656 L 131.277344 200.445312 L 132.160156 200.445312 L 132.160156 216.105469 C 133.40625 215.726562 134.316406 214.566406 134.316406 213.199219 L 134.316406 199.5625 L 130.710938 199.5625 C 128.230469 199.5625 126.222656 197.550781 126.222656 195.074219 C 126.222656 192.59375 128.230469 190.585938 130.710938 190.585938 C 133.1875 190.585938 135.199219 192.59375 135.199219 195.074219 L 135.199219 198.679688 L 141.273438 198.679688 L 141.273438 195.074219 C 141.273438 192.59375 143.28125 190.585938 145.761719 190.585938 C 148.242188 190.585938 150.25 192.59375 150.25 195.074219 C 150.25 197.550781 148.242188 199.5625 145.761719 199.5625 L 142.15625 199.5625 L 142.15625 213.199219 C 142.15625 214.566406 143.066406 215.726562 144.3125 216.105469 L 144.3125 200.445312 L 145.195312 200.445312 L 145.195312 216.941406 C 146.648438 214.367188 148.480469 212.054688 150.640625 210.0625 C 154.457031 206.546875 156.605469 201.550781 156.539062 196.359375 C 156.476562 191.5 154.546875 186.953125 151.109375 183.5625 " fill-opacity="1" fill-rule="nonzero"/><path fill="#ffffff" d="M 144.539062 224.289062 C 144.539062 227.507812 142.296875 230.203125 139.292969 230.90625 C 141.617188 229.617188 143.195312 227.136719 143.195312 224.289062 L 143.195312 222.664062 L 144.539062 222.664062 Z M 130.675781 221.898438 L 130.675781 224.289062 C 130.675781 228.464844 134.0625 231.847656 138.234375 231.847656 C 142.410156 231.847656 145.796875 228.464844 145.792969 224.289062 L 145.792969 221.898438 L 130.675781 221.898438 " fill-opacity="1" fill-rule="nonzero"/><path fill="#ffffff" d="M 145.796875 218.292969 L 130.675781 218.292969 L 130.675781 220.351562 L 145.796875 220.351562 L 145.796875 218.292969 " fill-opacity="1" fill-rule="nonzero"/><g fill="#ffffff" fill-opacity="1"><g transform="translate(94.700656, 293.645428)"><g><path d="M 18.578125 -5.4375 L 16.59375 -8.515625 L 8.21875 -6.0625 L 8.203125 -2.40625 L 0.34375 -0.09375 L 2.078125 -26.546875 L 11.015625 -29.15625 L 26.703125 -7.8125 Z M 8.25 -11.875 L 13.421875 -13.390625 L 8.453125 -21.171875 L 8.296875 -21.140625 Z M 8.25 -11.875 "/></g></g></g><g fill="#ffffff" fill-opacity="1"><g transform="translate(123.648928, 285.289437)"><g><path d="M 8.84375 -26.890625 C 17.414062 -28.429688 22.4375 -25.117188 23.90625 -16.953125 C 25.375 -8.785156 21.820312 -3.929688 13.25 -2.390625 L 2.625 -0.46875 L -1.78125 -24.96875 Z M 9.4375 -7.765625 L 12.03125 -8.234375 C 15.332031 -8.828125 16.664062 -10.890625 16.03125 -14.421875 L 15.640625 -16.5625 C 15.003906 -20.101562 13.035156 -21.578125 9.734375 -20.984375 L 7.140625 -20.515625 Z M 9.4375 -7.765625 "/></g></g></g><g fill="#ffffff" fill-opacity="1"><g transform="translate(153.36206, 280.093662)"><g><path d="M 0.796875 -25.015625 L 22.265625 -26.640625 L 22.71875 -20.703125 L 9.21875 -19.671875 L 9.46875 -16.234375 L 21.015625 -17.109375 L 21.453125 -11.40625 L 9.90625 -10.53125 L 10.1875 -6.75 L 23.953125 -7.796875 L 24.40625 -1.84375 L 2.671875 -0.203125 Z M 0.796875 -25.015625 "/></g></g></g><g fill="#ffffff" fill-opacity="1"><g transform="translate(181.502817, 278.113868)"><g><path d="M 3.1875 -24.828125 L 11.1875 -24.671875 L 10.796875 -6.15625 L 23.578125 -5.890625 L 23.453125 0.484375 L 2.671875 0.0625 Z M 3.1875 -24.828125 "/></g></g></g><g fill="#ffffff" fill-opacity="1"><g transform="translate(207.927388, 278.93244)"><g><path d="M 3.03125 0.296875 L 5.421875 -24.484375 L 13.375 -23.71875 L 10.984375 1.0625 Z M 3.03125 0.296875 "/></g></g></g><g fill="#ffffff" fill-opacity="1"><g transform="translate(224.162819, 280.245176)"><g><path d="M 20.140625 3.703125 L 12.046875 -10.078125 L 9.859375 1.8125 L 2.625 0.484375 L 7.125 -24 L 14 -22.734375 L 22.078125 -8.78125 L 24.296875 -20.84375 L 31.515625 -19.515625 L 27.015625 4.96875 Z M 20.140625 3.703125 "/></g></g></g><g fill="#ffffff" fill-opacity="1"><g transform="translate(255.710907, 286.258199)"><g><path d="M 9.625 -23.09375 L 30.265625 -16.984375 L 28.578125 -11.265625 L 15.609375 -15.109375 L 14.625 -11.8125 L 25.71875 -8.53125 L 24.09375 -3.046875 L 13 -6.328125 L 11.921875 -2.6875 L 25.15625 1.234375 L 23.46875 6.953125 L 2.5625 0.765625 Z M 9.625 -23.09375 "/></g></g></g><g fill="#083e78" fill-opacity="1"><g transform="translate(97.810229, 329.545943)"><g><path d="M 16.015625 2 C 15.148438 3.664062 13.96875 4.664062 12.46875 5 C 10.96875 5.332031 9.242188 5 7.296875 4 C 5.347656 3 4.070312 1.789062 3.46875 0.375 C 2.863281 -1.039062 2.992188 -2.582031 3.859375 -4.25 L 7.59375 -11.546875 L 11.5 -9.53125 L 7.78125 -2.296875 C 7.4375 -1.609375 7.34375 -0.960938 7.5 -0.359375 C 7.65625 0.234375 8.082031 0.710938 8.78125 1.078125 C 9.476562 1.429688 10.117188 1.492188 10.703125 1.265625 C 11.296875 1.046875 11.765625 0.597656 12.109375 -0.078125 L 15.828125 -7.3125 L 19.75 -5.296875 Z M 16.015625 2 "/></g></g></g><g fill="#083e78" fill-opacity="1"><g transform="translate(117.685997, 339.359603)"><g><path d="M 10.609375 3.890625 L 7.484375 -4.359375 L 5.1875 1.90625 L 1.390625 0.515625 L 6.109375 -12.375 L 9.71875 -11.0625 L 12.828125 -2.734375 L 15.15625 -9.078125 L 18.953125 -7.6875 L 14.234375 5.203125 Z M 10.609375 3.890625 "/></g></g></g><g fill="#083e78" fill-opacity="1"><g transform="translate(138.497179, 346.471377)"><g><path d="M 1.625 0.421875 L 5.0625 -12.875 L 9.34375 -11.765625 L 5.90625 1.53125 Z M 1.625 0.421875 "/></g></g></g><g fill="#083e78" fill-opacity="1"><g transform="translate(151.216562, 349.694112)"><g><path d="M 5.15625 0.828125 L 2.515625 -13.515625 L 7.15625 -12.765625 L 8.4375 -3.25 L 8.515625 -3.234375 L 12.6875 -11.875 L 17.15625 -11.15625 L 10.203125 1.640625 Z M 5.15625 0.828125 "/></g></g></g><g fill="#083e78" fill-opacity="1"><g transform="translate(172.006974, 352.683261)"><g><path d="M 2.109375 -13.65625 L 13.96875 -13.109375 L 13.8125 -9.8125 L 6.359375 -10.15625 L 6.28125 -8.265625 L 12.65625 -7.96875 L 12.515625 -4.828125 L 6.140625 -5.125 L 6.046875 -3.03125 L 13.640625 -2.6875 L 13.484375 0.609375 L 1.484375 0.0625 Z M 2.109375 -13.65625 "/></g></g></g><g fill="#083e78" fill-opacity="1"><g transform="translate(191.885883, 353.311465)"><g><path d="M 13.84375 -10.5 C 13.894531 -9.65625 13.71875 -8.878906 13.3125 -8.171875 C 12.90625 -7.460938 12.28125 -6.914062 11.4375 -6.53125 L 14.890625 -1.015625 L 9.953125 -0.671875 L 7.171875 -5.515625 L 5.53125 -5.40625 L 5.875 -0.40625 L 1.484375 -0.09375 L 0.546875 -13.796875 L 8.9375 -14.375 C 9.90625 -14.4375 10.75 -14.300781 11.46875 -13.96875 C 12.195312 -13.632812 12.757812 -13.15625 13.15625 -12.53125 C 13.5625 -11.914062 13.789062 -11.238281 13.84375 -10.5 Z M 9.375 -10.015625 C 9.351562 -10.378906 9.210938 -10.664062 8.953125 -10.875 C 8.703125 -11.09375 8.398438 -11.191406 8.046875 -11.171875 L 5.15625 -10.984375 L 5.328125 -8.453125 L 8.21875 -8.640625 C 8.570312 -8.660156 8.859375 -8.804688 9.078125 -9.078125 C 9.304688 -9.347656 9.40625 -9.660156 9.375 -10.015625 Z M 9.375 -10.015625 "/></g></g></g><g fill="#083e78" fill-opacity="1"><g transform="translate(212.815766, 351.546023)"><g><path d="M 4.609375 -15.0625 C 6.347656 -15.375 7.832031 -15.28125 9.0625 -14.78125 C 10.300781 -14.289062 11.054688 -13.363281 11.328125 -12 L 11.375 -11.75 L 7.3125 -11 L 7.296875 -11.078125 C 7.222656 -11.472656 7.019531 -11.773438 6.6875 -11.984375 C 6.351562 -12.191406 5.890625 -12.238281 5.296875 -12.125 C 4.722656 -12.019531 4.296875 -11.859375 4.015625 -11.640625 C 3.742188 -11.421875 3.632812 -11.179688 3.6875 -10.921875 C 3.75 -10.578125 4.003906 -10.359375 4.453125 -10.265625 C 4.910156 -10.171875 5.613281 -10.117188 6.5625 -10.109375 C 7.695312 -10.078125 8.632812 -10.003906 9.375 -9.890625 C 10.113281 -9.773438 10.796875 -9.488281 11.421875 -9.03125 C 12.054688 -8.582031 12.472656 -7.882812 12.671875 -6.9375 C 12.960938 -5.34375 12.632812 -4.0625 11.6875 -3.09375 C 10.75 -2.125 9.375 -1.472656 7.5625 -1.140625 C 5.457031 -0.753906 3.753906 -0.804688 2.453125 -1.296875 C 1.148438 -1.796875 0.332031 -2.941406 0 -4.734375 L 4.109375 -5.484375 C 4.234375 -4.796875 4.492188 -4.375 4.890625 -4.21875 C 5.285156 -4.0625 5.851562 -4.050781 6.59375 -4.1875 C 7.15625 -4.28125 7.601562 -4.421875 7.9375 -4.609375 C 8.269531 -4.796875 8.40625 -5.066406 8.34375 -5.421875 C 8.28125 -5.742188 8.035156 -5.953125 7.609375 -6.046875 C 7.179688 -6.140625 6.5 -6.195312 5.5625 -6.21875 C 4.414062 -6.25 3.457031 -6.320312 2.6875 -6.4375 C 1.925781 -6.5625 1.222656 -6.867188 0.578125 -7.359375 C -0.0664062 -7.859375 -0.484375 -8.609375 -0.671875 -9.609375 C -0.941406 -11.097656 -0.566406 -12.296875 0.453125 -13.203125 C 1.472656 -14.117188 2.859375 -14.738281 4.609375 -15.0625 Z M 4.609375 -15.0625 "/></g></g></g><g fill="#083e78" fill-opacity="1"><g transform="translate(232.154919, 347.598297)"><g><path d="M 1.609375 -0.453125 L -2.09375 -13.6875 L 2.171875 -14.875 L 5.875 -1.640625 Z M 1.609375 -0.453125 "/></g></g></g><g fill="#083e78" fill-opacity="1"><g transform="translate(244.745953, 343.985813)"><g><path d="M 5.140625 -12.890625 L 8.78125 -3.34375 L 4.640625 -1.765625 L 1 -11.3125 L -3.21875 -9.703125 L -4.46875 -13 L 8.078125 -17.78125 L 9.328125 -14.484375 Z M 5.140625 -12.890625 "/></g></g></g><g fill="#083e78" fill-opacity="1"><g transform="translate(263.232959, 336.650843)"><g><path d="M 8.890625 -4.59375 L 4.96875 -2.5625 L 2.515625 -7.296875 L -6.1875 -12.265625 L -1.671875 -14.59375 L 2.75 -11.75 L 2.8125 -11.78125 L 3.0625 -17.046875 L 7.34375 -19.265625 L 6.4375 -9.328125 Z M 8.890625 -4.59375 "/></g></g></g></svg>